<?xml version="1.0" standalone="no"?>
<!DOCTYPE svg PUBLIC "-//W3C//DTD SVG 20010904//EN"
 "http://www.w3.org/TR/2001/REC-SVG-20010904/DTD/svg10.dtd">
<svg version="1.0" xmlns="http://www.w3.org/2000/svg"
 width="206.000000pt" height="206.000000pt" viewBox="0 0 206.000000 206.000000"
 preserveAspectRatio="xMidYMid meet">
<metadata>
Created by potrace 1.14, written by Peter Selinger 2001-2017
</metadata>
<g transform="translate(0.000000,206.000000) scale(0.100000,-0.100000)"
fill="#000000" stroke="none">
<path d="M0 1030 l0 -1030 1030 0 1030 0 0 1030 0 1030 -1030 0 -1030 0 0
-1030z m1164 -5 c116 -267 213 -482 217 -478 4 5 101 223 214 486 205 471 208
477 236 477 21 0 29 -5 30 -17 0 -10 10 -240 22 -510 21 -463 21 -493 5 -493
-24 0 -25 10 -43 470 -9 223 -20 421 -23 442 -7 34 -22 3 -213 -435 -187 -428
-208 -472 -231 -475 -23 -3 -34 18 -228 465 -111 257 -206 471 -210 476 -4 5
-52 -866 -50 -929 1 -30 -110 -45 -167 -23 -45 17 -68 44 -213 254 -84 120
-151 207 -168 218 -17 9 -49 17 -71 17 l-41 0 0 -250 c0 -243 -1 -250 -20
-250 -20 0 -20 7 -20 510 l0 510 173 0 c194 0 246 -10 315 -60 75 -54 107
-157 82 -261 -10 -42 -24 -64 -65 -105 -60 -60 -112 -80 -237 -90 -71 -6 -76
-8 -58 -21 11 -8 76 -96 144 -196 69 -100 141 -198 161 -217 31 -30 43 -35 85
-35 26 0 50 2 53 5 2 3 15 223 27 490 12 267 24 491 26 498 2 6 16 12 31 12
27 0 33 -12 237 -485z"/>
<path d="M238 1455 c-5 -5 -8 -107 -8 -227 l0 -218 130 0 c153 0 212 11 275
51 58 37 84 90 85 174 0 105 -53 178 -149 205 -46 13 -323 25 -333 15z"/>
</g>
</svg>
